<svg width="190" height="148" viewBox="0 0 190 148" fill="none" xmlns="http://www.w3.org/2000/svg">
<g clip-path="url(#clip0_1481_1000)">
<path d="M169.922 62.1829C169.922 61.0479 169.708 59.8954 169.512 58.6362C169.512 58.1929 169.387 57.7318 169.315 57.2709C167.33 45.0439 162.008 33.59 153.928 24.1519C145.848 14.7137 135.318 7.65167 123.48 3.73203C111.643 -0.187622 98.949 -0.815218 86.7772 1.91732C74.6054 4.64988 63.4201 10.6382 54.4346 19.2326L53.3983 20.2789C51.7674 21.8943 50.2225 23.5931 48.7703 25.3684L48.5737 25.599C38.3737 38.1969 33.0439 53.9964 33.5451 70.1498C34.0464 86.303 40.3459 101.747 51.3076 113.698L51.5935 114.018C52.3439 114.798 53.0767 115.56 53.8092 116.27L58.2408 113.149C57.4546 112.386 56.6326 111.57 55.8285 110.702L55.5246 110.4C45.268 99.3496 39.3663 85.0019 38.9002 69.9851C38.4343 54.968 43.4352 40.2872 52.9874 28.6314L53.2374 28.3298C54.7706 26.464 56.4113 24.6876 58.1515 23.0099C58.491 22.6905 58.8305 22.3536 59.1878 22.0523C67.4751 14.4757 77.6597 9.24551 88.6784 6.90742C99.6974 4.56933 111.147 5.20908 121.831 8.7599C132.516 12.3107 142.044 18.6425 149.422 27.0943C156.8 35.5463 161.757 45.8084 163.776 56.8098C163.776 57.2709 163.954 57.7318 164.026 58.1929C164.205 59.3279 164.347 60.4097 164.455 61.4736L167.242 62.3956L169.994 63.3001C169.976 62.9277 169.958 62.5554 169.922 62.1829ZM167.475 69.9323L164.741 71.1205C164.741 72.4151 164.58 73.692 164.437 75.0041C164.437 75.5184 164.312 76.0327 164.24 76.5292C162.781 87.1524 158.591 97.2241 152.074 105.775C145.557 114.326 136.932 121.069 127.03 125.355C117.127 129.641 106.28 131.326 95.5308 130.247C84.7821 129.168 74.4941 125.362 65.6565 119.196C65.2276 118.912 64.7987 118.611 64.3699 118.292C63.7444 117.848 63.119 117.369 62.583 116.873L57.383 119.48C58.2587 120.26 59.1701 120.987 60.0635 121.661C60.4567 121.98 60.8676 122.282 61.2785 122.565C70.9332 129.642 82.2964 134.07 94.2241 135.403C106.151 136.735 118.222 134.925 129.221 130.156C140.219 125.386 149.757 117.824 156.875 108.232C163.992 98.6408 168.437 87.3573 169.762 75.5185C169.762 75.022 169.869 74.5255 169.905 74.029C170.03 72.6812 170.119 71.3335 170.155 69.9502C170.155 69.5422 170.155 69.1167 170.155 68.7088L167.475 69.9323Z" fill="#212D65"/>
<path d="M15.0143 49.9648L81.1121 88.7477L75.5011 92.4008L14.1387 56.4373L15.0143 49.9648Z" fill="#EDAB1E"/>
<path d="M91.8339 81.7772L85.4189 85.9446L15.7295 44.75L16.6587 37.8516L91.8339 81.7772Z" fill="#EDAB1E"/>
<path d="M18.3022 25.8652L102.43 74.8803L96.2114 78.9413L17.373 32.5685L18.3022 25.8652Z" fill="#EDAB1E"/>
<path d="M112.455 68.3722L107.148 71.9721L19 20.6515L20.0007 14.0547L112.455 68.3722Z" fill="#EDAB1E"/>
<path d="M21.071 9.46289L48.5714 25.6003L50.8944 26.9659L53.2353 28.3312L120.494 67.8589L55.8264 110.721L53.5569 112.228L51.3055 113.718L0.217773 147.571L59.9899 121.662L62.7953 120.438L65.6544 119.197L164.184 76.4774L167.044 75.236L169.849 74.0303L189.684 65.4118L169.545 58.7085L166.704 57.7687L163.809 56.8111L59.1858 22.0536L56.291 21.096L53.3962 20.2803L21.071 9.46289ZM45.5873 122.744L54.4326 116.892L56.7019 115.384L58.9892 113.859L129.107 67.522L59.418 26.7353L164.452 61.475L167.24 62.3972L169.992 63.3014L177.14 65.6778L170.153 68.7102L167.472 69.9339L164.738 71.1219L61.3478 115.917L58.6139 117.105L55.8978 118.275L45.5873 122.744Z" fill="#212D65"/>
</g>
<defs>
<clipPath id="clip0_1481_1000">
<rect width="190" height="148" fill="white"/>
</clipPath>
</defs>
</svg>
